<svg xmlns="http://www.w3.org/2000/svg" viewBox="0 0 59.53 39.69"><defs><style>.cls-1{fill:#223769;}.cls-2{fill:#fff;}</style></defs><title>C</title><g id="Layer_2" data-name="Layer 2"><g id="Layer_1-2" data-name="Layer 1"><rect class="cls-1" width="59.53" height="39.69"/><path class="cls-2" d="M30.16,32.06a9.53,9.53,0,0,1-6.91-2.46c-1.7-1.65-2.55-4-2.55-7.13V16.9q0-4.66,2.55-7.12a9.49,9.49,0,0,1,6.91-2.47,8.82,8.82,0,0,1,6.61,2.38,8.9,8.9,0,0,1,2.33,6.49v.21H35.46v-.31a5.86,5.86,0,0,0-1.31-3.94,5,5,0,0,0-4-1.53,5.5,5.5,0,0,0-4.25,1.65,6.46,6.46,0,0,0-1.53,4.57v5.71a6.48,6.48,0,0,0,1.53,4.56,5.47,5.47,0,0,0,4.25,1.66,4.93,4.93,0,0,0,4-1.54,5.88,5.88,0,0,0,1.31-3.93v-.58H39.1v.48a8.88,8.88,0,0,1-2.33,6.49A8.82,8.82,0,0,1,30.16,32.06Z"/></g></g></svg>