<svg xmlns="http://www.w3.org/2000/svg" viewBox="0 0 59.53 39.69"><defs><style>.cls-1{fill:#223769;}.cls-2{fill:#fff;}</style></defs><title>G</title><g id="Layer_2" data-name="Layer 2"><g id="Layer_1-2" data-name="Layer 1"><rect class="cls-1" width="59.53" height="39.69"/><path class="cls-2" d="M29.27,32.06A9.38,9.38,0,0,1,24.71,31a7.92,7.92,0,0,1-3.16-3.25,10.91,10.91,0,0,1-1.15-5.24V16.9q0-4.66,2.55-7.12a9.48,9.48,0,0,1,6.9-2.47,8.89,8.89,0,0,1,6.59,2.33,8.43,8.43,0,0,1,2.32,6.24v.17H35.12v-.27a5.82,5.82,0,0,0-.58-2.64,4.35,4.35,0,0,0-1.73-1.85,5.81,5.81,0,0,0-3-.68,5.51,5.51,0,0,0-4.25,1.65,6.46,6.46,0,0,0-1.53,4.57v5.71a6.57,6.57,0,0,0,1.53,4.58,5.5,5.5,0,0,0,4.28,1.68,4.9,4.9,0,0,0,4-1.5,5.79,5.79,0,0,0,1.26-3.87V23H28.73V19.82h10V31.59h-3.4V29.17h-.55a5.58,5.58,0,0,1-.9,1.33,4.35,4.35,0,0,1-1.7,1.12A8.2,8.2,0,0,1,29.27,32.06Z"/></g></g></svg>