<svg xmlns="http://www.w3.org/2000/svg" viewBox="0 0 59.53 39.69"><defs><style>.cls-1{fill:#223769;}.cls-2{fill:#fff;}</style></defs><title>J</title><g id="Layer_2" data-name="Layer 2"><g id="Layer_1-2" data-name="Layer 1"><rect class="cls-1" width="59.53" height="39.69"/><path class="cls-2" d="M28.54,32.06a7.93,7.93,0,0,1-5.68-2,7.37,7.37,0,0,1-2.11-5.62v-2h3.68v2a4.34,4.34,0,0,0,1,3,3.87,3.87,0,0,0,3,1.14,3.45,3.45,0,0,0,2.82-1.12,4.66,4.66,0,0,0,.92-3.06V11.12H28.06V7.79H38.54v3.33H35.88V24.45A7.76,7.76,0,0,1,34,30.11,7.27,7.27,0,0,1,28.54,32.06Z"/></g></g></svg>