<svg xmlns="http://www.w3.org/2000/svg" viewBox="0 0 59.53 39.69"><defs><style>.cls-1{fill:#f36e55;}.cls-2{fill:#fff;}</style></defs><title>P</title><g id="Layer_2" data-name="Layer 2"><g id="Layer_1-2" data-name="Layer 1"><rect class="cls-1" width="59.53" height="39.69"/><path class="cls-2" d="M22,31.59V7.79h9.45a8.59,8.59,0,0,1,3.89.86A6.64,6.64,0,0,1,38,11.1a7.19,7.19,0,0,1,1,3.79v.44a7,7,0,0,1-1,3.81,6.65,6.65,0,0,1-2.7,2.45,8.44,8.44,0,0,1-3.84.85H25.67v9.15Zm3.67-12.48h5.4a4.53,4.53,0,0,0,3.1-1,3.53,3.53,0,0,0,1.15-2.79V15a3.56,3.56,0,0,0-1.15-2.82,4.53,4.53,0,0,0-3.1-1h-5.4Z"/></g></g></svg>