<svg xmlns="http://www.w3.org/2000/svg" viewBox="0 0 59.53 39.69"><defs><style>.cls-1{fill:#223769;}.cls-2{fill:#fff;}</style></defs><title>Q</title><g id="Layer_2" data-name="Layer 2"><g id="Layer_1-2" data-name="Layer 1"><rect class="cls-1" width="59.53" height="39.69"/><path class="cls-2" d="M29.75,32.06a9.68,9.68,0,0,1-7-2.46c-1.72-1.65-2.59-4-2.59-7.13V16.9c0-3.11.87-5.48,2.59-7.12a9.64,9.64,0,0,1,7-2.47,9.7,9.7,0,0,1,7,2.47q2.61,2.46,2.61,7.12v5.57c0,3.11-.87,5.48-2.61,7.13A9.73,9.73,0,0,1,29.75,32.06Zm0-3.3a5.63,5.63,0,0,0,4.35-1.64,6.39,6.39,0,0,0,1.53-4.51V16.76a6.36,6.36,0,0,0-1.53-4.5,5.64,5.64,0,0,0-4.35-1.65,5.66,5.66,0,0,0-4.32,1.65,6.28,6.28,0,0,0-1.56,4.5v5.85a6.31,6.31,0,0,0,1.56,4.51A5.65,5.65,0,0,0,29.75,28.76Zm1.46,8.64a3.18,3.18,0,0,1-2.36-.9,3.28,3.28,0,0,1-.9-2.43V31.59h3.6v1.87c0,.68.32,1,.95,1h2.11V37.4Z"/></g></g></svg>