<svg xmlns="http://www.w3.org/2000/svg" viewBox="0 0 59.53 39.69"><defs><style>.cls-1{fill:#5775b9;}.cls-2{fill:#fff;}</style></defs><title>R</title><g id="Layer_2" data-name="Layer 2"><g id="Layer_1-2" data-name="Layer 1"><rect class="cls-1" width="59.53" height="39.69"/><path class="cls-2" d="M21.5,31.59V7.79h10a9.31,9.31,0,0,1,3.89.76,5.8,5.8,0,0,1,3.55,5.59v.38a5.58,5.58,0,0,1-1.07,3.59A5.73,5.73,0,0,1,35.27,20v.55a3,3,0,0,1,2.08.86,3.17,3.17,0,0,1,.78,2.3v7.89H34.42V24.21A2.17,2.17,0,0,0,34,22.75a1.92,1.92,0,0,0-1.53-.55H25.17v9.39Zm3.67-12.72h5.92a4.36,4.36,0,0,0,3.06-1,3.53,3.53,0,0,0,1.09-2.74v-.27a3.58,3.58,0,0,0-1.07-2.74,4.34,4.34,0,0,0-3.08-1H25.17Z"/></g></g></svg>