<svg xmlns="http://www.w3.org/2000/svg" viewBox="0 0 59.53 39.69"><defs><style>.cls-1{fill:#f36e55;}.cls-2{fill:#fff;}</style></defs><title>S</title><g id="Layer_2" data-name="Layer 2"><g id="Layer_1-2" data-name="Layer 1"><rect class="cls-1" width="59.53" height="39.69"/><path class="cls-2" d="M30,32.06a11.33,11.33,0,0,1-4.76-1A7.35,7.35,0,0,1,22,28.31,8.3,8.3,0,0,1,20.8,23.8V23h3.64v.85A4.6,4.6,0,0,0,26,27.57a6.08,6.08,0,0,0,4,1.26,5.86,5.86,0,0,0,3.84-1.07A3.43,3.43,0,0,0,35.12,25a2.68,2.68,0,0,0-.61-1.83A4.13,4.13,0,0,0,32.77,22a20.91,20.91,0,0,0-2.68-.8l-1.26-.31a20.13,20.13,0,0,1-4-1.34,6.44,6.44,0,0,1-2.6-2.13,5.84,5.84,0,0,1-.92-3.4,6.11,6.11,0,0,1,1-3.6,6.68,6.68,0,0,1,2.87-2.31,10.44,10.44,0,0,1,4.32-.82A10.94,10.94,0,0,1,34,8.16a7,7,0,0,1,3.08,2.52,7.3,7.3,0,0,1,1.12,4.18v1.22H34.58V14.86A4.41,4.41,0,0,0,34,12.38,3.68,3.68,0,0,0,32.2,11a7.26,7.26,0,0,0-2.62-.44,5.6,5.6,0,0,0-3.39.9,3,3,0,0,0-1.2,2.5,2.9,2.9,0,0,0,.52,1.79,3.81,3.81,0,0,0,1.55,1.13,14.11,14.11,0,0,0,2.55.79l1.26.3A21,21,0,0,1,35,19.26a7,7,0,0,1,2.79,2.16,5.68,5.68,0,0,1,1,3.5,6.57,6.57,0,0,1-1.07,3.74,7.1,7.1,0,0,1-3,2.5A11.09,11.09,0,0,1,30,32.06Z"/></g></g></svg>