<svg xmlns="http://www.w3.org/2000/svg" viewBox="0 0 59.53 39.69"><defs><style>.cls-1{fill:#223769;}.cls-2{fill:#fff;}</style></defs><title>U</title><g id="Layer_2" data-name="Layer 2"><g id="Layer_1-2" data-name="Layer 1"><rect class="cls-1" width="59.53" height="39.69"/><path class="cls-2" d="M29.78,32.06a10.61,10.61,0,0,1-4.84-1,7.29,7.29,0,0,1-3.13-2.94,9.2,9.2,0,0,1-1.11-4.67V7.79h3.71V23.53a5.18,5.18,0,0,0,1.39,3.88,5.5,5.5,0,0,0,4,1.35,5.5,5.5,0,0,0,4-1.35,5.18,5.18,0,0,0,1.39-3.88V7.79h3.67V23.43a9.4,9.4,0,0,1-1.08,4.67A7.24,7.24,0,0,1,34.61,31,10.68,10.68,0,0,1,29.78,32.06Z"/></g></g></svg>