<svg xmlns="http://www.w3.org/2000/svg" width="59.284" height="72" viewBox="0 0 59.284 72">
  <defs>
    <style>
      .cls-1 {
        fill: #0e2a56;
      }
    </style>
  </defs>
  <g id="Group_4" data-name="Group 4" transform="translate(6997.569 -318.882)">
    <path id="Path_738" data-name="Path 738" class="cls-1" d="M-6997.4,390.747a33.9,33.9,0,0,1-.128-4.816c-.029-1.564-.008-3.13-.006-4.7s.007-3.129.007-4.694-.005-3.125-.007-4.687q0-2.436,0-4.87,0-2.341,0-4.684c0-1.565-.084-3.139.04-4.693s-.157-3.1-.045-4.659c.111-1.522-.211-3.083.29-4.754-.6-.807-.125-1.914-.272-3.036l1.07-.251-1-1.361v-11.6c1.075-.744,27.122-12.27,29.5-13.063,2.046.666,28.457,12.334,29.557,13.075v17.352l-.628.533.627,1.2-.305.373c.747,3.078.173,6.216.345,9.425l-1.646.612c.4.713,1.055-.044,1.511.316.252,1.533.281,24.493.036,28.765a12.435,12.435,0,0,1-5.645.045,14.352,14.352,0,0,1-1.942.271c-14.31.015-47.482.018-49.758.006C-6996.325,390.853-6996.851,390.786-6997.4,390.747Zm57.567-19.6.073-.086-.033.129-.074.084Zm-7.484-31.661.048-.045-.044.053-.086.03Zm-23.482,5.616.058-.091c.024-.2.006-.055-.011.091l-.11.013Zm-15.041,7.252-.054.027.077-.077a50.971,50.971,0,0,0-6.711,6.444,4.835,4.835,0,0,0,1.495,1.962,43.507,43.507,0,0,0,10.234,7.993,26.187,26.187,0,0,0,15.119,3.328,29.891,29.891,0,0,0,15.818-6.793c2.048-1.618,3.888-3.534,5.8-5.338a7.668,7.668,0,0,0,.8-1.109c-.489-.552-.878-1.025-1.3-1.459-.745-.764-1.511-1.5-2.267-2.253h.2l-.154.016a57.653,57.653,0,0,0-6.029-4.7,31.1,31.1,0,0,0-9.424-4.112,24.857,24.857,0,0,0-10.676-.151,26.229,26.229,0,0,0-5.157,1.537A36.807,36.807,0,0,0-6985.843,352.358Zm41.369,19.167c.572.664.87.655,1.271,0Zm-4.983-28.5c.232.651.232.651.73.328Zm-8.844,2.142v.164h.957v-.164Zm-37.621-6.249.18.225.64-.419-.116-.223Zm21.647,5.5c.175-.674-.054-.788-.536-.52Zm30.319,7.853v-.179h-.594v.179Zm4.893,37.237-.007-.189-.635.039,0,.149Zm-40.045-56.071-.116.284.642.2.069-.2Zm34.334,39.727-.006-.1h-.379l.005.127Zm-.153-17.71.16-.145-.295-.369-.155.14Zm1.325-.392v-.16h-.477v.16Zm-20.375,19.278,0,.2h.5l.006-.177Zm-4.361-48.852v-.14l-.273.038.012.1Zm-12.037,21.748-.007.17c.122,0,.244,0,.366-.005a.664.664,0,0,0,.008-.124C-6980.13,347.259-6980.252,347.248-6980.375,347.237Zm-13.673-14.134h.287c-.018-.035-.045-.1-.053-.1A2.188,2.188,0,0,0-6994.048,333.1Zm54.466,26.118-.267-.185-.157.26Zm-.516-11.494Zm-52.62,12.435-.006.086.356.03.007-.086Zm-1.367,19.876.765.153.01-.24Zm42.15-40.3Zm11.73,29.825c-.088,0-.176,0-.264.005v.114h.265Zm-56.5-26.524v.254h.7v-.254Zm53.862,23.023c.179.116.222.167.251.16a.953.953,0,0,0,.2-.1Zm-52.676-22.257v.173h.6V343.8Zm10.462,35.534-.125-.049.08.166Zm42.531,5.969a.412.412,0,0,0,.132.038c.016,0,.03-.063.045-.1a.412.412,0,0,0-.132-.038C-6942.5,385.211-6942.514,385.274-6942.529,385.308Zm1.159,2.732.029.165.373-.087c-.022-.043-.046-.123-.067-.121A2.987,2.987,0,0,0-6941.37,388.04Zm-41.195-62-.135.036.172.07Zm15.813,2.149.116.067.014-.108Zm-7.031,4.2-.109-.079-.025.113Zm-8.407.237c-.038.033-.1.06-.108.1s.04.086.062.13l.173-.169Zm27.975,1.911-.466-.2-.031.243Zm-.906,1,.007-.087-.1.035Zm-5.1,1.346.116.067.014-.108Zm-9.625,5.173-.015.111.13-.039Zm24.57.036.251.128.014-.225C-6945.1,342.034-6945.186,342.066-6945.274,342.1Zm-18.929,1.133-.02-.142-.329.061c.01.04.022.116.031.115C-6964.415,343.262-6964.309,343.245-6964.2,343.233Zm-12.4.555-.129.042.164.077Zm17.085,1.061-.006.112.128-.05Zm13.623,3.965v-.121h-.365v.121Zm-44.8.563-.127.053.125.058Zm-3.333.387-.226-.113.006.229Zm44.191,1.334,0,.111h.323l0-.088Zm-46.082,2.107-.127.053.125.059Zm1.413,7.968-.007.112.343.026.007-.116Zm49.428,1.427-.124.06.126.051Zm-1.85,1.855.007-.111-.128.048Zm-1.2.629.116.066.013-.108Zm-1.836,1.732.109.079.025-.112Zm-2.034.655-.006.113.128-.05Zm10.558.772-.109-.079-.025.112Zm.133,4.489-.109-.043.07.14Zm-29.832,2.486-.247-.036C-6971.308,375.194-6971.226,375.206-6971.143,375.217Zm28.794,2.115.006-.113-.128.05Zm-12.338-37.361-.052.08.084.012Zm-18.175.408c-.032-.04-.061-.11-.1-.113s-.076.057-.115.091c.032.04.062.11.1.113S-6972.9,340.412-6972.862,340.379Zm24.006,4.881.081.059.012-.09Zm-46.33,7.573-.052.085.084.011Zm53.551,5.371.065-.1-.1-.015Zm-54.12,4.447c-.029-.035-.057-.095-.088-.1s-.065.053-.1.083c.029.035.056.095.087.1S-6995.789,362.681-6995.755,362.651Zm-.794.348.076.058.014-.085Zm48.748,1.3-.065.1.107.013Zm4.332,3.209c-.034-.038-.066-.105-.1-.107s-.073.062-.109.1l.153.117Zm-46.427.384-.078-.056-.013.086Zm49.532-.034.077.06.014-.087Zm-12.42,2.791.076.056.013-.085Zm-8.739,3.588.1-.1-.09-.1-.1.146Z" transform="translate(0 0)"/>
    <path id="Path_739" data-name="Path 739" class="cls-1" d="M-6958.552,351.436l-.446.348.761.406c2.4,4.7.276,11.258-5.032,13.835a10.632,10.632,0,0,1-13.9-4.265,10.633,10.633,0,0,1,4.21-14.752A10.653,10.653,0,0,1-6958.552,351.436Zm-13.618,7.344.063-.019-.019.063-.1.1Zm-5.581-1.2.04.041-.072-.081-.11-.1c.018.006.042.006.052.018C-6977.808,357.492-6977.781,357.534-6977.751,357.575Zm3.936-8.139-.007-.092.023.051c.1.046.206.092.091.041Zm-.541,3.611v.1h.714v-.1Zm14.179,1.746,0-.08h-.432l0,.109Zm-16.214-2.4,0,.094.328.015,0-.093Zm3.731-1.847v-.121h-.5v.121Zm-.7,4.537q-.12-.015-.24-.027Zm10.719,1.319a1.349,1.349,0,0,0,.242.11c.024.006.1-.094.1-.1-.054-.066-.118-.125-.179-.186Zm-.943,2.233a.432.432,0,0,0-.132-.036c-.015,0-.03.059-.044.091a.434.434,0,0,0,.131.036C-6963.611,358.724-6963.6,358.666-6963.582,358.634Zm-8.492,6.508-.127.051.125.054Zm6.948-17.861.053-.078-.086-.01Zm-8.911,10.392.1.062.011-.1Zm-.523,4.248-.077-.053-.012.085Z" transform="translate(0 2.57)"/>
  </g>
</svg>
