<svg xmlns="http://www.w3.org/2000/svg" viewBox="0 0 240.35 77.28"><g id="Layer_2" data-name="Layer 2"><g id="Layer_1-2" data-name="Layer 1"><path fill="#223769" d="M11.86,13.21H0V76.49H11.86V53.31c4.59,0,6.17.79,6.17,5.38v17.8H29.9V61.06c0-5.93-1.82-9.17-5.86-10.83,3.72-2.69,5.86-7.2,5.86-14.16V30.46C29.9,17.72,25.39,13.21,11.86,13.21ZM18,36.07c0,4.59-1.58,5.38-6.17,5.38V25.08c4.59,0,6.17.79,6.17,5.38Z"/><path fill="#223769" d="M53,58.45c0,5.38-1,7-3.57,7s-3.58-1.58-3.58-7V13.21H33.94v46c0,12.73,5.3,18,14.87,18h1.13c9.57,0,14.87-5.3,14.87-18v-46H53Z"/><path fill="#223769" d="M189.29,58.45c0,5.38-1,7-3.57,7s-3.58-1.58-3.58-7V13.21H170.28v46c0,12.73,5.3,18,14.87,18h1.13c9.57,0,14.87-5.3,14.87-18v-46H189.29Z"/><polygon fill="#223769" points="92.15 44.45 81.95 13.21 70.08 13.21 70.08 76.49 81.95 76.49 81.95 45.24 92.15 76.49 104.02 76.49 104.02 13.21 92.15 13.21 92.15 44.45"/><path fill="#223769" d="M157.17,50c6.09-3.4,8.86-9.09,8.86-16.77,0-14.31-7.67-20-22.78-20H109.4V76.49h11.86V53.31h16.45c13.29,0,16.53,3.17,16.53,10.13v13h11.87v-13C166.11,56.63,162.86,52.44,157.17,50Zm-13.92-7.75h-22v-18h22c7.75,0,10.91,2,10.91,8.93S151,42.24,143.25,42.24Z"/><polygon fill="#223769" points="228.49 13.21 228.49 44.45 218.29 13.21 206.42 13.21 206.42 76.49 218.29 76.49 218.29 45.24 228.49 76.49 240.35 76.49 240.35 13.21 228.49 13.21"/><polygon fill="#223769" points="197.48 5.71 196.01 0 175.72 5.46 176.7 9.22 197.48 5.71"/></g></g></svg>
