<svg xmlns="http://www.w3.org/2000/svg" viewBox="0 0 91.99 63.27"><g id="Layer_2" data-name="Layer 2"><g id="Layer_1-2" data-name="Layer 1"><path fill="#231f20" d="M11.86,0H0V63.27H11.86V40.1c4.59,0,6.17.79,6.17,5.38V63.27H29.9V47.85c0-5.93-1.82-9.17-5.86-10.83,3.72-2.69,5.86-7.2,5.86-14.16V17.24C29.9,4.51,25.39,0,11.86,0ZM18,22.86c0,4.59-1.58,5.38-6.17,5.38V11.86c4.59,0,6.17.79,6.17,5.38Z"/><path fill="#231f20" d="M83.05,36.78c6.09-3.4,8.86-9.1,8.86-16.77,0-14.31-7.67-20-22.78-20H35.28V63.27H47.14V40.1H63.59c13.29,0,16.53,3.16,16.53,10.12V63.27H92V50.22C92,43.42,88.75,39.23,83.05,36.78ZM69.13,29h-22v-18h22c7.75,0,10.92,2,10.92,8.94S76.88,29,69.13,29Z"/></g></g></svg>
