<svg xmlns="http://www.w3.org/2000/svg" width="127.59" height="88.958" viewBox="0 0 127.59 88.958">
  <defs>
    <style>
      .cls-1 {
        fill: #fff;
        stroke: #1a1818;
        stroke-linejoin: round;
        stroke-width: 2px;
      }

      .cls-2 {
        fill: #1a1818;
      }
    </style>
  </defs>
  <g id="Grupo_651" data-name="Grupo 651" transform="translate(-907.474 -35.41)">
    <path id="Trazado_1380" data-name="Trazado 1380" class="cls-1" d="M1034.064,65.335c-6.942,4.6-8.931,7.954-.371,10.614-9.6,3.807-8.643,6.918-2.407,10.6-9.623,1.919-13.963,4.4-7.8,10.374-11.783.119-13.064,3.724-10.035,10.134-10-1.977-15.684-1.149-15.133,8-10.255-4.9-14.272-1.469-17.376,6.571-6.324-5.854-11.439-7.166-18.495,1.742-3.531-8.461-9-6.7-17.11-.529-.1-7.089-2.836-9.764-13.47-4.686,2.907-8.074-2.083-8.4-11.569-5.885,3.983-6.046,3.471-9.259-6.822-8.456,6.517-6.155,3.254-8.294-5-9.369,6.941-4.6,8.931-7.954.371-10.614,9.6-3.807,8.643-6.918,2.407-10.6,9.623-1.919,13.963-4.4,7.8-10.374,11.783-.118,13.064-3.724,10.035-10.134,10,1.977,15.684,1.15,15.133-8,10.255,4.9,14.271,1.468,17.376-6.572,6.324,5.855,11.439,7.166,18.495-1.742,3.531,8.461,9,6.7,17.11.529.1,7.09,2.836,9.764,13.47,4.687-2.908,8.073,2.083,8.4,11.568,5.885-3.982,6.045-3.47,9.259,6.822,8.456C1022.545,62.122,1025.808,64.26,1034.064,65.335Z"/>
    <g id="Grupo_650" data-name="Grupo 650">
      <path id="Trazado_1381" data-name="Trazado 1381" class="cls-2" d="M936.29,79.675l3.624-.84a.305.305,0,0,1,.366.228l3.522,15.2a.3.3,0,0,1-.228.366l-6.963,1.614a.305.305,0,0,1-.323-.13l-6.7-10.217a.3.3,0,0,0-.552.236L931.575,97.1a.306.306,0,0,1-.229.366l-3.625.84a.305.305,0,0,1-.366-.228l-3.522-15.2a.3.3,0,0,1,.228-.366l6.965-1.614a.3.3,0,0,1,.323.13l6.7,10.217a.3.3,0,0,0,.552-.236l-2.542-10.965A.3.3,0,0,1,936.29,79.675Z"/>
      <path id="Trazado_1382" data-name="Trazado 1382" class="cls-2" d="M955.508,92.147q-3.97.921-6.414-.343a6.4,6.4,0,0,1-3.209-4.558l-2.086-9a.306.306,0,0,1,.229-.366l3.851-.893a.3.3,0,0,1,.365.228l2,8.616q.816,3.519,4.426,2.683t2.793-4.357l-2-8.615a.305.305,0,0,1,.228-.366l3.851-.892a.3.3,0,0,1,.366.228l2.085,9a6.388,6.388,0,0,1-.886,5.506Q959.455,91.233,955.508,92.147Z"/>
      <path id="Trazado_1383" data-name="Trazado 1383" class="cls-2" d="M970.96,84.645l9.312-2.159a.3.3,0,0,1,.365.229l.663,2.857a.3.3,0,0,1-.228.366l-13.757,3.188a.305.305,0,0,1-.366-.228l-3.522-15.2a.3.3,0,0,1,.228-.366l13.395-3.105a.3.3,0,0,1,.365.229l.663,2.857a.3.3,0,0,1-.228.366l-8.95,2.074a.3.3,0,0,0-.228.366l.485,2.092a.3.3,0,0,0,.365.229l6.829-1.583a.3.3,0,0,1,.366.228l.615,2.654a.3.3,0,0,1-.228.366l-6.829,1.582a.3.3,0,0,0-.228.366l.547,2.362A.306.306,0,0,0,970.96,84.645Z"/>
      <path id="Trazado_1384" data-name="Trazado 1384" class="cls-2" d="M992.235,66.709l3.465-.8a.5.5,0,0,1,.611.542l-1.75,16.019a.5.5,0,0,1-.385.434l-5.8,1.345a.5.5,0,0,1-.537-.222L979.3,70.389a.5.5,0,0,1,.312-.754l3.581-.83a.5.5,0,0,1,.546.236l6.225,10.672a.5.5,0,0,0,.932-.213l.954-12.342A.5.5,0,0,1,992.235,66.709Z"/>
      <path id="Trazado_1385" data-name="Trazado 1385" class="cls-2" d="M1002.614,78.96a7.916,7.916,0,0,1-3.762-5.464,7.924,7.924,0,0,1,.974-6.562,11.715,11.715,0,0,1,13.345-3.092,7.9,7.9,0,0,1,3.773,5.461,7.9,7.9,0,0,1-.986,6.565,11.715,11.715,0,0,1-13.344,3.092Zm1.118-10.1a5.424,5.424,0,1,0,3.11-2.017A4.658,4.658,0,0,0,1003.732,68.86Z"/>
    </g>
  </g>
</svg>
