<svg xmlns="http://www.w3.org/2000/svg" width="53" height="37.312" viewBox="0 0 53 37.312">
  <defs>
    <style>
      .cls-1 {
        fill: #fff;
        stroke: #1a1818;
        stroke-linejoin: round;
        stroke-width: 2px;
      }

      .cls-2 {
        fill: #1a1818;
      }
    </style>
  </defs>
  <g id="Grupo_867" data-name="Grupo 867" transform="translate(-907.474 -35.41)">
    <path id="Trazado_1380" data-name="Trazado 1380" class="cls-1" d="M959.474,48.156c-2.819,1.867-3.627,3.23-.151,4.31-3.9,1.546-3.51,2.809-.977,4.3-3.908.779-5.67,1.788-3.167,4.213-4.785.048-5.305,1.512-4.075,4.115-4.06-.8-6.369-.467-6.145,3.25-4.164-1.989-5.8-.6-7.056,2.668-2.568-2.377-4.645-2.91-7.51.707-1.434-3.436-3.656-2.722-6.948-.215-.041-2.879-1.152-3.965-5.47-1.9,1.18-3.279-.846-3.409-4.7-2.39,1.617-2.455,1.41-3.76-2.77-3.434,2.646-2.5,1.321-3.368-2.031-3.8,2.819-1.867,3.627-3.23.151-4.31,3.9-1.546,3.51-2.809.978-4.3,3.908-.779,5.67-1.788,3.167-4.213,4.785-.048,5.305-1.512,4.075-4.115,4.06.8,6.369.467,6.145-3.249,4.164,1.988,5.8.6,7.056-2.669,2.568,2.378,4.645,2.91,7.51-.707,1.434,3.436,3.656,2.722,6.948.215.041,2.879,1.152,3.965,5.47,1.9-1.181,3.278.846,3.409,4.7,2.39-1.617,2.455-1.409,3.76,2.77,3.434C954.8,46.851,956.121,47.719,959.474,48.156Z"/>
    <g id="Grupo_650" data-name="Grupo 650" transform="translate(914.708 47.148)">
      <path id="Trazado_1381" data-name="Trazado 1381" class="cls-2" d="M928.887,79.171l1.472-.341a.124.124,0,0,1,.149.093l1.43,6.172a.124.124,0,0,1-.093.149l-2.828.655a.124.124,0,0,1-.131-.053L926.164,81.7a.124.124,0,0,0-.224.1l1.032,4.453a.124.124,0,0,1-.093.149l-1.472.341a.124.124,0,0,1-.149-.093l-1.43-6.172a.124.124,0,0,1,.093-.149l2.828-.655a.123.123,0,0,1,.131.053l2.722,4.149a.124.124,0,0,0,.224-.1l-1.032-4.453A.124.124,0,0,1,928.887,79.171Z" transform="translate(-923.825 -72.34)"/>
      <path id="Trazado_1382" data-name="Trazado 1382" class="cls-2" d="M948.549,81.534a3.773,3.773,0,0,1-2.6-.139,2.6,2.6,0,0,1-1.3-1.851l-.847-3.654a.124.124,0,0,1,.093-.149l1.564-.363a.124.124,0,0,1,.148.093l.811,3.5a1.505,1.505,0,0,0,2.931-.68l-.81-3.5a.124.124,0,0,1,.093-.149l1.564-.362a.124.124,0,0,1,.149.093l.847,3.654a2.594,2.594,0,0,1-.36,2.236A3.781,3.781,0,0,1,948.549,81.534Z" transform="translate(-935.683 -69.639)"/>
      <path id="Trazado_1383" data-name="Trazado 1383" class="cls-2" d="M966.481,76.078l3.781-.877a.124.124,0,0,1,.148.093l.269,1.16a.124.124,0,0,1-.093.149L965,77.9a.124.124,0,0,1-.149-.093l-1.43-6.172a.124.124,0,0,1,.092-.149l5.44-1.261a.124.124,0,0,1,.148.093l.269,1.16a.124.124,0,0,1-.093.149l-3.634.842a.124.124,0,0,0-.093.149l.2.85a.124.124,0,0,0,.148.093l2.773-.643a.124.124,0,0,1,.148.093l.25,1.078a.124.124,0,0,1-.093.149l-2.773.642a.124.124,0,0,0-.093.149l.222.959A.124.124,0,0,0,966.481,76.078Z" transform="translate(-947.341 -67.228)"/>
      <path id="Trazado_1384" data-name="Trazado 1384" class="cls-2" d="M984.506,66.224l1.407-.326a.2.2,0,0,1,.248.22l-.711,6.505a.2.2,0,0,1-.156.176l-2.357.546a.2.2,0,0,1-.218-.09l-3.467-5.537a.2.2,0,0,1,.127-.306l1.454-.337a.2.2,0,0,1,.222.1l2.528,4.334a.2.2,0,0,0,.378-.086l.387-5.012A.2.2,0,0,1,984.506,66.224Z" transform="translate(-956.726 -64.658)"/>
      <path id="Trazado_1385" data-name="Trazado 1385" class="cls-2" d="M1000.208,69.394a3.676,3.676,0,0,1-1.132-4.884,4.757,4.757,0,0,1,5.419-1.256,3.663,3.663,0,0,1,1.132,4.884,4.757,4.757,0,0,1-5.419,1.256Zm.454-4.1a2.2,2.2,0,1,0,1.263-.819A1.892,1.892,0,0,0,1000.662,65.292Z" transform="translate(-968.213 -62.853)"/>
    </g>
  </g>
</svg>
