<svg xmlns="http://www.w3.org/2000/svg" xmlns:xlink="http://www.w3.org/1999/xlink" width="36" height="36" viewBox="0 0 36 36">
  <defs>
    <style>
      .cls-1 {
        fill: none;
      }

      .cls-2 {
        fill: #ebedeb;
      }

      .cls-3 {
        clip-path: url(#clip-path);
      }
    </style>
    <clipPath id="clip-path">
      <rect id="Rectangle_678" data-name="Rectangle 678" class="cls-1" width="18" height="15.989"/>
    </clipPath>
  </defs>
  <g id="Group_1311" data-name="Group 1311" transform="translate(0 -29)">
    <rect id="Rectangle" class="cls-2" width="36" height="36" rx="8" transform="translate(0 29)"/>
    <g id="Group_1312" data-name="Group 1312" transform="translate(1.5 3.005)">
      <g id="Group_1316" data-name="Group 1316" transform="translate(7.5 36)">
        <g id="Group_1316-2" data-name="Group 1316" class="cls-3">
          <path id="Path_1569" data-name="Path 1569" d="M74.223,169.138a6.463,6.463,0,0,0-9.086.908,6.548,6.548,0,0,0-1.442,3.546,2.373,2.373,0,0,0,1.2,2.46,6.517,6.517,0,0,0,1.087.542,11.73,11.73,0,0,0,4.116.678,12.664,12.664,0,0,0,3.773-.524,5.083,5.083,0,0,0,2.013-1.081,2.011,2.011,0,0,0,.711-1.525,6.3,6.3,0,0,0-2.373-5" transform="translate(-61.246 -161.284)"/>
          <path id="Path_1570" data-name="Path 1570" d="M375.2,95.175a2.975,2.975,0,0,0-.848-1.65,1.332,1.332,0,0,0-1.931.006,2.679,2.679,0,0,0-.435.55,4.069,4.069,0,0,0-.524,1.991c.034.3.052.607.1.907a2.91,2.91,0,0,0,.856,1.664,1.315,1.315,0,0,0,1.927-.007,2.968,2.968,0,0,0,.568-.8,4.115,4.115,0,0,0,.282-2.661" transform="translate(-357.297 -89.563)"/>
          <path id="Path_1571" data-name="Path 1571" d="M261.23,5.61a1.294,1.294,0,0,0,1.742.005,2.688,2.688,0,0,0,.536-.636,4.012,4.012,0,0,0,.527-2.008c-.036-.3-.052-.6-.111-.886a2.847,2.847,0,0,0-1-1.79A1.259,1.259,0,0,0,261.338.27a2.462,2.462,0,0,0-.606.671,4.067,4.067,0,0,0-.4,3.111,2.763,2.763,0,0,0,.894,1.558" transform="translate(-250.276 0)"/>
          <path id="Path_1572" data-name="Path 1572" d="M3.235,98.209a4.1,4.1,0,0,0,.584-2.23c-.019-.169-.034-.449-.083-.723A3.053,3.053,0,0,0,2.9,93.538a1.339,1.339,0,0,0-1.987.008,2.766,2.766,0,0,0-.4.508A3.506,3.506,0,0,0,.024,95.6a3.991,3.991,0,0,0,.553,2.6,1.72,1.72,0,0,0,.988.794,1.515,1.515,0,0,0,1.671-.786" transform="translate(0 -89.552)"/>
          <path id="Path_1573" data-name="Path 1573" d="M111.634,5.661a1.323,1.323,0,0,0,1.9,0,2.682,2.682,0,0,0,.516-.676,4.114,4.114,0,0,0,.368-2.723A3.046,3.046,0,0,0,113.6.578a1.346,1.346,0,0,0-2.014-.006,2.63,2.63,0,0,0-.385.493,4.29,4.29,0,0,0-.554,2.028c.058.375.093.756.181,1.125a2.767,2.767,0,0,0,.8,1.444" transform="translate(-106.431 -0.117)"/>
        </g>
      </g>
    </g>
  </g>
</svg>
