<svg xmlns="http://www.w3.org/2000/svg" width="558.617" height="172" viewBox="0 0 558.617 172">
  <g id="Group_1433" data-name="Group 1433" transform="translate(0.027)">
    <g id="Component_161_10" data-name="Component 161 – 10" transform="translate(-0.027)">
      <rect id="Rectangle_634" data-name="Rectangle 634" fill="none" width="480" height="152"/>
      <g id="Group_869" data-name="Group 869" transform="translate(20 26)">
        <g id="Layer_2" data-name="Layer 2" transform="translate(0)">
          <g id="Layer_1" data-name="Layer 1">
            <path id="Path_1508" data-name="Path 1508" fill="#231f20" d="M198.178,38.55h-24.1a.465.465,0,0,1-.465-.465V30.018a.465.465,0,0,1,.465-.465h24.1c2.482,0,4.486.465,4.486,4.5S200.66,38.55,198.178,38.55Zm3.413,35.137v18a7.563,7.563,0,0,0,7.563,7.563h14.892a7.123,7.123,0,0,0,6.593-4.46.452.452,0,0,1,.711-.181c5.43,4.615,12.255,5.662,17.31,5.662h1.461c6.813,0,16.806-1.9,22.313-11.842a.452.452,0,0,1,.789,0c5.507,9.941,15.513,11.842,22.3,11.842H297c5.43,0,12.927-1.215,18.486-6.761a.44.44,0,0,1,.75.194,7.123,7.123,0,0,0,6.955,5.546h15.1a7.058,7.058,0,0,0,2.947-.633.414.414,0,0,1,.349,0,7.059,7.059,0,0,0,2.947.633h7.1a7.059,7.059,0,0,0,2.947-.633.414.414,0,0,1,.349,0,7.058,7.058,0,0,0,2.947.633h15.1a7.162,7.162,0,0,0,3.284-.8.439.439,0,0,1,.4,0,7.149,7.149,0,0,0,3.271.8h15.112a7.2,7.2,0,0,0,3.284-.8.414.414,0,0,1,.388,0,7.161,7.161,0,0,0,3.284.8h30.444A7.563,7.563,0,0,0,440,91.682V75.044a7.563,7.563,0,0,0-7.563-7.563h-5.585a.452.452,0,0,1-.453-.452V64.263a.452.452,0,0,1,.453-.452h5.585A7.563,7.563,0,0,0,440,56.248V41.82a7.563,7.563,0,0,0-7.563-7.563h-5.585a.465.465,0,0,1-.452-.465V31.026a.465.465,0,0,1,.453-.465h5.585A7.563,7.563,0,0,0,440,23V8.584a7.563,7.563,0,0,0-7.627-7.563H401.929a7.162,7.162,0,0,0-3.284.8.414.414,0,0,1-.388,0,7.2,7.2,0,0,0-3.284-.8H379.861a7.149,7.149,0,0,0-3.271.8.375.375,0,0,1-.4,0,7.162,7.162,0,0,0-3.284-.8H358.182a7.563,7.563,0,0,0-7.408,6.037L348.486,18.1a.452.452,0,0,1-.892,0l-2.288-11.04A7.563,7.563,0,0,0,337.9,1.021H323.187a7.123,7.123,0,0,0-6.942,5.546.44.44,0,0,1-.75.194C309.885,1.215,302.426,0,297,0h-1.474c-6.8,0-16.806,1.9-22.3,11.842a.453.453,0,0,1-.789,0C266.927,1.9,256.934,0,250.121,0H248.66c-7.02,0-17.426,2.03-22.817,12.811a.452.452,0,0,1-.763.065C219.211,5,209,1.021,194.494,1.021h-43.76a7.162,7.162,0,0,0-3.284.8.44.44,0,0,1-.4,0,7.149,7.149,0,0,0-3.271-.8H128.435a7.11,7.11,0,0,0-6.205,3.646.452.452,0,0,1-.776,0,7.1,7.1,0,0,0-6.205-3.646H99.9a7.227,7.227,0,0,0-3.206.763.414.414,0,0,1-.388,0,7.239,7.239,0,0,0-3.232-.763H77.759a7.058,7.058,0,0,0-4.344,1.487.427.427,0,0,1-.543,0,7.1,7.1,0,0,0-4.357-1.487H53.184A7.11,7.11,0,0,0,46.41,5.985a.44.44,0,0,1-.7.246C40.812,2.689,33.883,1.06,24.653,1.06H7.563A7.563,7.563,0,0,0,0,8.584v83.1a7.563,7.563,0,0,0,7.563,7.563h17.09A7.02,7.02,0,0,0,28.4,98.171a.427.427,0,0,1,.465,0,7.02,7.02,0,0,0,3.749,1.073H47.961a7.11,7.11,0,0,0,6.554-4.356.452.452,0,0,1,.711-.182c5.4,4.525,12.165,5.559,17.181,5.559h1.461c5.4,0,12.8-1.189,18.383-6.645a.44.44,0,0,1,.75.194,7.1,7.1,0,0,0,6.9,5.43h15.345a7.11,7.11,0,0,0,6.27-3.581.452.452,0,0,1,.776,0,7.1,7.1,0,0,0,6.205,3.646h15.345a7.149,7.149,0,0,0,3.271-.8.44.44,0,0,1,.4,0,7.162,7.162,0,0,0,3.284.8h14.88a7.563,7.563,0,0,0,7.55-7.627V67.533a.452.452,0,0,1,.452-.452h16.612C196.265,67.029,201.591,68.244,201.591,73.687Z" transform="translate(0 0)"/>
            <rect id="Rectangle_632" data-name="Rectangle 632" fill="#f36e55" width="15.112" height="81.792" rx="0.35" transform="translate(379.861 5.934)"/>
            <path id="Path_1509" data-name="Path 1509" fill="#f36e55" d="M274.408,49.707,265.152,4.952a.465.465,0,0,0-.439-.362h-14.22a.452.452,0,0,0-.452.452v80.9a.44.44,0,0,0,.452.44h14.22a.44.44,0,0,0,.452-.44V56.39a.452.452,0,0,1,.892-.078l5.287,29.733a.44.44,0,0,0,.44.362h6.3a.44.44,0,0,0,.44-.362l5.287-29.733a.452.452,0,0,1,.892.078V85.943a.44.44,0,0,0,.453.44h14.22a.44.44,0,0,0,.452-.44V5.042a.452.452,0,0,0-.452-.452h-14.4a.465.465,0,0,0-.44.362l-9.256,44.755a.44.44,0,0,1-.866,0Z" transform="translate(73.199 1.344)"/>
            <path id="Path_1510" data-name="Path 1510" fill="#f36e55" d="M339.609,19.482V5.042a.452.452,0,0,0-.452-.452H311.362a.452.452,0,0,0-.452.452v80.9a.452.452,0,0,0,.452.44h27.794a.452.452,0,0,0,.452-.44V71.5a.452.452,0,0,0-.452-.452H326.462a.452.452,0,0,1-.452-.452V53.611a.452.452,0,0,1,.452-.452h12.695a.452.452,0,0,0,.452-.452V38.266a.452.452,0,0,0-.452-.44H326.462a.452.452,0,0,1-.452-.452v-17a.452.452,0,0,1,.452-.452h12.695A.452.452,0,0,0,339.609,19.482Z" transform="translate(91.019 1.344)"/>
            <path id="Path_1511" data-name="Path 1511" fill="#f36e55" d="M22.532,4.59H7.652a.452.452,0,0,0-.452.452v80.9a.452.452,0,0,0,.452.44h14.44a.44.44,0,0,0,.44-.44V56.83A.465.465,0,0,1,23,56.378c5.572.065,7.511,1.176,7.511,6.955v22.61a.452.452,0,0,0,.452.44H45.4a.452.452,0,0,0,.452-.44V66.448c0-7.317-2.146-11.467-6.877-13.7a.44.44,0,0,1-.09-.75c4.434-3.529,6.968-9.243,6.968-17.853V26.877C45.853,10.42,40.023,4.59,22.532,4.59Zm7.976,29.552c0,5.766-1.939,6.89-7.511,6.955a.465.465,0,0,1-.465-.452V20.374a.452.452,0,0,1,.465-.44c5.572,0,7.511,1.176,7.511,6.942Z" transform="translate(2.108 1.344)"/>
            <path id="Path_1512" data-name="Path 1512" fill="#f36e55" d="M65.715,63.074c0,6.955-1.293,9.049-4.615,9.049s-4.628-2.094-4.628-9.049V5.042a.452.452,0,0,0-.44-.452H41.592a.452.452,0,0,0-.452.452V64.1c0,16.47,6.852,23.269,19.223,23.269h1.461c12.372,0,19.223-6.839,19.223-23.269V5.042a.452.452,0,0,0-.44-.452H66.168a.452.452,0,0,0-.452.452Z" transform="translate(12.044 1.344)"/>
            <path id="Path_1513" data-name="Path 1513" fill="#f36e55" d="M198.164,3.8H196.7c-12.372,0-19.223,6.852-19.223,23.269V64.327c0,16.47,6.852,23.269,19.223,23.269h1.461c12.372,0,19.223-6.839,19.223-23.269V27.108C217.387,10.652,210.536,3.8,198.164,3.8Zm3.878,59.466c0,6.955-1.293,9.049-4.615,9.049s-4.628-2.043-4.628-9.049V28.13c0-6.955,1.293-9.049,4.628-9.049s4.615,2.043,4.615,9.049Z" transform="translate(51.957 1.112)"/>
            <path id="Path_1514" data-name="Path 1514" fill="#f36e55" d="M234.427,3.8h-1.474c-12.372,0-19.223,6.852-19.223,23.269V64.327c0,16.47,6.852,23.269,19.223,23.269h1.474c12.372,0,19.223-6.839,19.223-23.269V27.108C253.65,10.652,246.8,3.8,234.427,3.8Zm3.878,59.466c0,6.955-1.293,9.049-4.615,9.049s-4.615-2.043-4.615-9.049V28.13c0-6.955,1.293-9.049,4.615-9.049s4.615,2.043,4.615,9.049Z" transform="translate(62.569 1.112)"/>
            <path id="Path_1515" data-name="Path 1515" fill="#f36e55" d="M104.945,42.3,92.728,4.9a.452.452,0,0,0-.427-.31H77.732a.452.452,0,0,0-.452.452v80.9a.452.452,0,0,0,.452.44h14.44a.452.452,0,0,0,.452-.44V48.815a.44.44,0,0,1,.866-.142l12.216,37.412a.452.452,0,0,0,.427.3H120.7a.452.452,0,0,0,.452-.44V5.042a.452.452,0,0,0-.452-.452h-14.44a.452.452,0,0,0-.452.452V42.157a.44.44,0,0,1-.866.142Z" transform="translate(22.624 1.344)"/>
            <path id="Path_1516" data-name="Path 1516" fill="#f36e55" d="M179.169,52.483a.44.44,0,0,1,0-.789c7.343-4.434,10.7-11.635,10.7-21.24,0-18.5-9.915-25.855-29.449-25.855H117.04a.452.452,0,0,0-.44.452V85.94a.44.44,0,0,0,.44.44h14.453a.44.44,0,0,0,.44-.44V56.827a.452.452,0,0,1,.452-.452H153.2c17.181,0,21.369,4.085,21.369,13.083V85.94a.452.452,0,0,0,.452.44h14.492a.452.452,0,0,0,.452-.44V69.509C189.912,61.041,186.008,55.7,179.169,52.483ZM160.385,42.141h-28a.452.452,0,0,1-.452-.452V19.337a.452.452,0,0,1,.452-.452H160.36c10.019,0,14.1,2.585,14.1,11.557s-4.085,11.674-14.1,11.674Z" transform="translate(34.135 1.347)"/>
          </g>
        </g>
      </g>
    </g>
    <g id="Group_965" data-name="Group 965" transform="translate(435 84.464)">
      <g id="Group_963" data-name="Group 963">
        <path id="Path_1484" data-name="Path 1484" fill="#fff" d="M92.63-127.19c-6.624,4.719-8.454,8.061-.01,10.374-9.241,4.035-8.207,7.04-2,10.423-9.33,2.193-13.484,4.762-7.269,10.387-11.5.507-12.63,4.07-9.46,10.227-9.825-1.6-15.349-.6-14.507,8.315-10.174-4.439-13.981-.959-16.744,6.993-6.369-5.505-11.406-6.616-18,2.315C20.918-76.3,15.634-74.4,7.925-68.1,7.592-75.02,4.832-77.54-5.381-72.23c2.57-7.978-2.312-8.126-11.489-5.361,3.687-6.034,3.08-9.154-6.941-8.028,6.157-6.225,2.9-8.2-5.2-8.98,6.624-4.719,8.454-8.061.01-10.374,9.241-4.035,8.207-7.041,2-10.423,9.33-2.193,13.484-4.762,7.269-10.386,11.5-.508,12.63-4.07,9.46-10.227,9.825,1.6,15.349.6,14.507-8.315,10.174,4.439,13.981.959,16.744-6.993,6.369,5.505,11.406,6.615,18-2.316,3.729,8.143,9.012,6.244,16.721-.052.334,6.917,3.093,9.437,13.306,4.127-2.57,7.978,2.312,8.126,11.489,5.361-3.687,6.034-3.08,9.154,6.941,8.028C81.278-129.945,84.534-127.965,92.63-127.19Z" transform="translate(29.983 154.662)"/>
        <path id="Path_1485" data-name="Path 1485" fill="#1a1818" d="M6.679-68.371a.977.977,0,0,1-.4-.084A.976.976,0,0,1,5.7-69.3c-.151-3.137-.8-4.93-2.038-5.642-1.686-.97-5-.184-9.842,2.335a.978.978,0,0,1-1.081-.12.976.976,0,0,1-.3-1.046c.564-1.751,1.038-4.041.091-5.005-1.7-1.733-8.225.234-10.369.88a.978.978,0,0,1-1.055-.338.977.977,0,0,1-.06-1.107c1.718-2.812,2.294-4.7,1.713-5.613-.488-.767-2.221-1.552-7.712-.935a.978.978,0,0,1-.988-.545.977.977,0,0,1,.185-1.113c2.952-2.985,3.054-4.365,2.852-4.921-.42-1.159-2.925-1.966-7.446-2.4a.977.977,0,0,1-.85-.72.977.977,0,0,1,.377-1.048c3.7-2.635,5.464-4.587,5.249-5.8-.1-.583-.882-1.727-4.931-2.836a.977.977,0,0,1-.716-.872.977.977,0,0,1,.583-.966c5.062-2.21,6.172-3.757,6.212-4.665.047-1.081-1.4-2.428-4.291-4a.976.976,0,0,1-.5-.988.977.977,0,0,1,.745-.82c2.18-.512,8.813-2.072,9.419-4.423.338-1.308-1.218-3.055-2.582-4.289a.976.976,0,0,1-.263-1.055.976.976,0,0,1,.876-.645c5.454-.241,8.714-1.217,9.69-2.9.717-1.236.382-3.113-1.056-5.9a.977.977,0,0,1,.078-1.021.977.977,0,0,1,.947-.39c6.418,1.043,10.085.754,11.893-.937,1.287-1.2,1.773-3.272,1.485-6.323a.978.978,0,0,1,.4-.883.98.98,0,0,1,.963-.1c4.39,1.915,7.661,2.348,10,1.325,2.234-.978,3.909-3.365,5.43-7.743a.976.976,0,0,1,.67-.623.98.98,0,0,1,.892.2c3.506,3.03,6.149,4.265,8.573,3.991,2.539-.283,5.155-2.294,8-6.147a.982.982,0,0,1,.886-.392.976.976,0,0,1,.788.565c1.276,2.786,2.73,4.334,4.447,4.732,2.413.563,5.733-1.023,10.769-5.135a.977.977,0,0,1,1.015-.136.976.976,0,0,1,.578.846c.151,3.137.8,4.93,2.038,5.642,1.688.97,5,.184,9.842-2.335a.977.977,0,0,1,1.081.121.976.976,0,0,1,.3,1.046c-.564,1.751-1.038,4.041-.091,5.005,1.7,1.733,8.224-.234,10.369-.88a.979.979,0,0,1,1.055.338.977.977,0,0,1,.06,1.106c-1.718,2.813-2.295,4.7-1.713,5.614.488.767,2.22,1.55,7.712.935a.977.977,0,0,1,.988.544.978.978,0,0,1-.185,1.113c-2.952,2.985-3.054,4.365-2.852,4.921.42,1.159,2.925,1.966,7.446,2.4a.977.977,0,0,1,.85.72.976.976,0,0,1-.377,1.048c-3.7,2.635-5.464,4.587-5.249,5.8.1.583.882,1.727,4.931,2.836a.977.977,0,0,1,.716.872.976.976,0,0,1-.583.966c-5.062,2.21-6.172,3.757-6.212,4.666-.047,1.081,1.4,2.428,4.291,4a.976.976,0,0,1,.5.988.977.977,0,0,1-.745.82c-2.18.512-8.813,2.071-9.42,4.423-.338,1.308,1.218,3.055,2.582,4.289a.976.976,0,0,1,.263,1.055.976.976,0,0,1-.876.645c-5.454.241-8.714,1.216-9.69,2.9-.717,1.237-.382,3.113,1.056,5.906a.976.976,0,0,1-.078,1.021.974.974,0,0,1-.947.39c-6.418-1.043-10.085-.755-11.893.937-1.287,1.2-1.773,3.272-1.485,6.323a.977.977,0,0,1-.4.883.976.976,0,0,1-.963.1c-4.39-1.915-7.661-2.349-10-1.324-2.234.978-3.909,3.365-5.43,7.743a.977.977,0,0,1-.67.623.976.976,0,0,1-.892-.2c-3.507-3.031-6.153-4.259-8.573-3.991-2.539.284-5.155,2.294-8,6.148a.979.979,0,0,1-.886.392.976.976,0,0,1-.788-.565c-1.276-2.786-2.73-4.334-4.447-4.733-2.414-.56-5.734,1.024-10.768,5.135A.977.977,0,0,1,6.679-68.371Zm10.431-7.414a6.174,6.174,0,0,1,1.4.156c2,.464,3.661,1.91,5.065,4.407,2.865-3.553,5.558-5.37,8.4-5.687,2.735-.305,5.542.8,8.991,3.558,1.608-4.114,3.489-6.474,6.007-7.576,2.617-1.145,5.856-.918,10.115.726-.033-2.864.687-4.95,2.183-6.349,2.576-2.41,7.2-2.328,11.728-1.711-.8-1.94-1.308-4.224-.222-6.1,1.207-2.079,4.136-3.282,9.148-3.729-1.461-1.712-2-3.249-1.629-4.666.566-2.2,3.093-3.771,8.564-5.257-1.811-1.218-3.332-2.732-3.252-4.576s1.686-3.533,5.137-5.312c-2.426-.96-3.7-2.128-3.961-3.6-.32-1.8.916-3.729,4.08-6.261-4.006-.611-6.04-1.663-6.664-3.383-.509-1.406.01-3.054,1.63-5.1-3.876.187-6.106-.465-7.1-2.031s-.432-3.627.528-5.589c-5.48,1.449-8.457,1.348-10.045-.27-1.025-1.045-1.332-2.643-.922-4.856-4.565,2.119-7.7,2.542-9.787,1.344-1.876-1.078-2.577-3.311-2.856-5.39-3.609,2.8-7.577,5.183-11.012,4.382-2-.463-3.661-1.909-5.065-4.406-2.865,3.553-5.558,5.37-8.4,5.687-2.733.3-5.542-.8-8.991-3.558-1.608,4.114-3.49,6.474-6.008,7.576-2.617,1.145-5.857.919-10.115-.727.033,2.864-.687,4.95-2.183,6.349-2.576,2.409-7.2,2.327-11.728,1.711.8,1.939,1.308,4.224.222,6.1-1.207,2.08-4.135,3.282-9.148,3.73,1.461,1.712,1.995,3.249,1.629,4.666-.566,2.2-3.093,3.772-8.565,5.257,1.812,1.219,3.333,2.732,3.252,4.576s-1.686,3.533-5.137,5.311c2.425.96,3.7,2.128,3.961,3.6.32,1.8-.916,3.728-4.08,6.261,4.006.611,6.04,1.663,6.664,3.382.509,1.406-.009,3.055-1.63,5.1,3.875-.184,6.107.465,7.1,2.032s.431,3.627-.528,5.589c5.48-1.448,8.457-1.348,10.046.27,1.025,1.045,1.331,2.643.922,4.855,4.565-2.119,7.7-2.543,9.787-1.345,1.876,1.078,2.577,3.312,2.856,5.39C10.624-73.671,14.022-75.786,17.109-75.786Z" transform="translate(31.229 155.907)"/>
      </g>
      <g id="Group_964" data-name="Group 964" transform="translate(20.449 25.414)">
        <path id="Path_1486" data-name="Path 1486" fill="#1a1818" d="M29.714-61.829a.438.438,0,0,0-.538-.311l-3.275.877a.439.439,0,0,0-.267.2.438.438,0,0,0-.044.334L29.23-47.14,22.448-59.983a.438.438,0,0,0-.5-.219l-6.323,1.694a.44.44,0,0,0-.267.2.44.44,0,0,0-.044.334l4.725,17.634a.439.439,0,0,0,.424.326.423.423,0,0,0,.114-.015L23.85-40.9a.44.44,0,0,0,.267-.2.439.439,0,0,0,.044-.333l-3.639-13.58L27.3-42.181a.439.439,0,0,0,.5.219l6.324-1.694a.44.44,0,0,0,.311-.538Z" transform="translate(-15.297 77.948)"/>
        <path id="Path_1487" data-name="Path 1487" fill="#1a1818" d="M68.139-72.211a.439.439,0,0,0-.538-.311l-3.327.891a.443.443,0,0,0-.267.2.438.438,0,0,0-.044.334l3.092,11.537a3.142,3.142,0,0,1-.195,2.46,3.253,3.253,0,0,1-2.14,1.437,3.288,3.288,0,0,1-2.571-.175,3.139,3.139,0,0,1-1.4-2.033L57.658-69.4a.443.443,0,0,0-.2-.267.441.441,0,0,0-.334-.044l-3.325.891a.44.44,0,0,0-.311.538l3.064,11.437a7.792,7.792,0,0,0,1.863,3.462,6.17,6.17,0,0,0,3.2,1.756,7.306,7.306,0,0,0,1.544.159,10.043,10.043,0,0,0,2.592-.366,8.807,8.807,0,0,0,3.685-1.888,6.167,6.167,0,0,0,1.892-3.12,7.777,7.777,0,0,0-.117-3.929Z" transform="translate(-36.691 83.767)"/>
        <path id="Path_1488" data-name="Path 1488" fill="#1a1818" d="M108.481-66.517a.44.44,0,0,0-.2-.267.443.443,0,0,0-.334-.044l-7.738,2.073-.94-3.51,6.881-1.843a.44.44,0,0,0,.311-.538l-.81-3.022a.437.437,0,0,0-.2-.267.44.44,0,0,0-.333-.044l-6.881,1.844-.9-3.359,7.586-2.032a.443.443,0,0,0,.267-.2.44.44,0,0,0,.044-.334l-.81-3.022a.439.439,0,0,0-.538-.311L92.541-78.36a.44.44,0,0,0-.311.538l4.725,17.634a.439.439,0,0,0,.424.326.44.44,0,0,0,.114-.015l11.488-3.078a.44.44,0,0,0,.311-.538Z" transform="translate(-58.407 88.742)"/>
        <path id="Path_1489" data-name="Path 1489" fill="#1a1818" d="M136.581-91.122a.44.44,0,0,0-.379-.074l-3.427.918a.439.439,0,0,0-.326.436l.4,15.449-7.38-13.577a.439.439,0,0,0-.5-.215l-3.427.918a.44.44,0,0,0-.291.254.44.44,0,0,0,.022.386l9.209,16.433a.438.438,0,0,0,.383.224.422.422,0,0,0,.114-.015l5.693-1.526a.439.439,0,0,0,.326-.43l-.241-18.836A.439.439,0,0,0,136.581-91.122Z" transform="translate(-74.661 94.233)"/>
        <path id="Path_1490" data-name="Path 1490" fill="#1a1818" d="M177.821-88.058l-1.134-4.231a7.476,7.476,0,0,0-3.583-4.977,8.181,8.181,0,0,0-6.1-.444,8.186,8.186,0,0,0-5.061,3.435,7.48,7.48,0,0,0-.615,6.1l1.134,4.231a7.476,7.476,0,0,0,3.583,4.976,7.223,7.223,0,0,0,3.428.82,10.331,10.331,0,0,0,2.671-.375,8.182,8.182,0,0,0,5.061-3.435A7.475,7.475,0,0,0,177.821-88.058Zm-9.534,5.451a3.679,3.679,0,0,1-1.623-2.353l-1.188-4.434a3.688,3.688,0,0,1,.229-2.851,3.5,3.5,0,0,1,2.323-1.643,4.79,4.79,0,0,1,1.238-.178,3.016,3.016,0,0,1,1.606.435,3.719,3.719,0,0,1,1.613,2.359l1.188,4.434a3.714,3.714,0,0,1-.217,2.848,3.5,3.5,0,0,1-2.335,1.646A3.5,3.5,0,0,1,168.287-82.607Z" transform="translate(-96.94 98.087)"/>
      </g>
    </g>
  </g>
</svg>
