<svg xmlns="http://www.w3.org/2000/svg" xmlns:xlink="http://www.w3.org/1999/xlink" width="36" height="36" viewBox="0 0 36 36">
  <defs>
    <style>
      .cls-1 {
        fill: none;
      }

      .cls-2 {
        fill: #ebedeb;
      }

      .cls-3 {
        clip-path: url(#clip-path);
      }
    </style>
    <clipPath id="clip-path">
      <rect id="Rectangle_677" data-name="Rectangle 677" class="cls-1" width="20" height="22.407" transform="translate(0 0)"/>
    </clipPath>
  </defs>
  <g id="Group_1313" data-name="Group 1313" transform="translate(0 -29)">
    <rect id="Rectangle" class="cls-2" width="36" height="36" rx="8" transform="translate(0 29)"/>
    <g id="Group_1314" data-name="Group 1314">
      <g id="Group_1315" data-name="Group 1315" transform="translate(8 35.799)">
        <g id="Group_1315-2" data-name="Group 1315" class="cls-3" transform="translate(0 0.001)">
          <path id="Path_1566" data-name="Path 1566" d="M307.975,199.665q-1.6-2.752-3.183-5.51a1.385,1.385,0,0,0-1.294-.741c-1.557.006-3.113.006-4.67.008h-.118v-1.771h.109q1.413,0,2.827,0c.234,0,.469,0,.7-.016a.9.9,0,0,0,.837-.727.874.874,0,0,0-.529-1,1.569,1.569,0,0,0-.555-.094c-1.136-.009-2.272-.005-3.407-.006h-.134c-.007-.065-.014-.116-.019-.168-.045-.459-.08-.92-.136-1.378a1.941,1.941,0,0,0-2.148-1.72,1.451,1.451,0,0,0-1.3,1.059,2.75,2.75,0,0,0-.1.972q.073,1.366.151,2.732c.061,1.052.121,2.1.192,3.155a2.528,2.528,0,0,0,.121.744,1.943,1.943,0,0,0,1.767,1.279c.3.027.61.013.915.013l4.826,0c.134,0,.268,0,.4,0a.385.385,0,0,1,.337.222c.049.092.1.184.149.275q1.075,1.861,2.152,3.72a3.619,3.619,0,0,0,.316.5,1.124,1.124,0,0,0,1.175.417,1.092,1.092,0,0,0,.868-.848c.012-.046.023-.093.034-.139v-.223a2.255,2.255,0,0,0-.285-.755" transform="translate(-288.26 -182.364)"/>
          <path id="Path_1567" data-name="Path 1567" d="M14.733,347.495a.894.894,0,0,0-1.073.668A6.014,6.014,0,0,1,1.788,346.8a6,6,0,0,1,3.221-5.326.894.894,0,1,0-.83-1.583A7.812,7.812,0,0,0,0,346.8a7.685,7.685,0,0,0,.618,3.028,7.9,7.9,0,0,0,4.156,4.156,7.744,7.744,0,0,0,5.632.168,7.835,7.835,0,0,0,5-5.588.894.894,0,0,0-.668-1.073" transform="translate(0 -332.198)"/>
          <path id="Path_1568" data-name="Path 1568" d="M283.788,3.576A1.788,1.788,0,1,0,282,1.789a1.788,1.788,0,0,0,1.788,1.788" transform="translate(-275.698 -0.001)"/>
        </g>
      </g>
    </g>
  </g>
</svg>
