<svg id="Component_79_9" data-name="Component 79 – 9" xmlns="http://www.w3.org/2000/svg" width="368.998" height="62.913" viewBox="0 0 368.998 62.913">
  <path id="Path_736" data-name="Path 736" d="M3344.257-489.446h-6.18l-.861,10.434H3325.48l7.667-61.378h16.04l7.667,61.378h-11.736Zm-.939-11.509-2.113-27.236-2.191,27.236Z" transform="translate(-3325.48 541.157)" fill="#fff"/>
  <path id="Path_737" data-name="Path 737" d="M3447.172-523.664v7.749c0,12.2-4.459,16.495-17.838,16.726v20.178H3417.6V-540.39h11.736C3442.713-540.39,3447.172-536.016,3447.172-523.664Zm-11.736,7.749v-7.749c0-4.45-1.564-5.217-6.1-5.217V-510.7C3433.873-510.7,3435.437-511.465,3435.437-515.915Z" transform="translate(-3385.442 541.157)" fill="#fff"/>
  <path id="Path_738" data-name="Path 738" d="M3515.495-489.446h-6.181l-.86,10.434h-11.736l7.668-61.378h16.038l7.668,61.378h-11.736Zm-.939-11.509-2.113-27.236-2.191,27.236Z" transform="translate(-3436.952 541.157)" fill="#fff"/>
  <path id="Path_739" data-name="Path 739" d="M3619.269-479.012h-11.736c-.782-.92-.86-3.146-.86-5.447v-11.816c0-4.45-1.565-5.217-6.1-5.217v22.479h-11.736V-540.39h11.736c13.378,0,17.838,4.374,17.838,16.725v5.448c0,6.752-2.112,11.125-5.79,13.733,3.99,1.611,5.79,4.757,5.79,10.511v9.514C3618.409-482.158,3618.487-479.933,3619.269-479.012Zm-18.7-49.87V-513c4.538,0,6.1-.767,6.1-5.217v-5.448C3606.673-528.114,3605.108-528.882,3600.571-528.882Z" transform="translate(-3496.919 541.157)" fill="#fff"/>
  <path id="Path_740" data-name="Path 740" d="M3706.115-528.882h-8.058v49.87h-11.736v-49.87h-8.06V-540.39h27.854Z" transform="translate(-3555.133 541.157)" fill="#fff"/>
  <path id="Path_741" data-name="Path 741" d="M3767.865-489.446h-6.18l-.862,10.434h-11.735l7.667-61.378h16.038l7.668,61.378h-11.737Zm-.939-11.509-2.112-27.236-2.19,27.236Z" transform="translate(-3601.24 541.157)" fill="#fff"/>
  <path id="Path_742" data-name="Path 742" d="M3879.856-540.39v61.378H3868.12v-26.315l-4.85,26.315h-5.478l-4.849-26.315v26.315h-11.737V-540.39h11.737l7.589,35.446,7.589-35.446Z" transform="translate(-3661.207 541.157)" fill="#fff"/>
  <path id="Path_743" data-name="Path 743" d="M3968.145-528.882v13.427h10.563v11.509h-10.562v13.426h10.563v11.508h-22.3V-540.39h22.3v11.508Z" transform="translate(-3736.2 541.157)" fill="#fff"/>
  <path id="Path_744" data-name="Path 744" d="M4058.333-540.39v61.378H4046.6l-10.092-30.305v30.305h-11.736V-540.39h11.736l10.092,30.306V-540.39Z" transform="translate(-3780.702 541.157)" fill="#fff"/>
  <path id="Path_745" data-name="Path 745" d="M4153.255-528.882H4145.2v49.87h-11.737v-49.87H4125.4V-540.39h27.853Z" transform="translate(-3846.212 541.157)" fill="#fff"/>
  <path id="Path_746" data-name="Path 746" d="M4239.094-525.1v27.927c0,12.352-5.243,17.493-14.709,17.493s-14.709-5.141-14.709-17.493V-525.1c0-12.352,5.244-17.493,14.709-17.493S4239.094-537.447,4239.094-525.1Zm-11.737.767c0-5.217-.391-6.751-2.972-6.751s-2.973,1.534-2.973,6.751v26.393c0,5.217.391,6.751,2.973,6.751s2.972-1.534,2.972-6.751Z" transform="translate(-3901.076 542.588)" fill="#fff"/>
  <path id="Path_747" data-name="Path 747" d="M4327.848-496.4c0,10.818-4.146,16.726-14.4,16.726s-15.02-4.373-15.02-22.1h11.735c0,9.053,1.1,10.587,3.285,10.587s2.662-1.534,2.662-5.217c0-4.45-.784-6.291-5.947-10.434-5.711-4.526-11.735-8.209-11.735-19.794,0-10.051,4.3-15.958,14.161-15.958s14.475,5.908,14.475,19.027H4315.33c0-5.985-.938-7.519-2.737-7.519s-2.426,1.534-2.426,4.45c0,4.45,2.035,6.215,6.417,9.514C4323.155-512.206,4327.848-507.986,4327.848-496.4Z" transform="translate(-3958.85 542.588)" fill="#fff"/>
</svg>
