<svg id="Component_78_11" data-name="Component 78 – 11" xmlns="http://www.w3.org/2000/svg" width="368.679" height="117.819" viewBox="0 0 368.679 117.819">
  <path id="Path_731" data-name="Path 731" d="M3360.082-866.421c0-9.77-.746-12.644-5.664-12.644s-5.664,2.874-5.664,12.644v49.427c0,9.77.745,12.644,5.664,12.644s5.664-2.874,5.664-12.644v-13.937h22.356v15.374c0,23.133-9.986,32.76-28.019,32.76s-28.019-9.627-28.019-32.76v-52.3c0-23.133,9.985-32.76,28.019-32.76s28.019,9.627,28.019,32.76v15.374h-22.356Z" transform="translate(-3326.399 900.617)" fill="#fff"/>
  <path id="Path_732" data-name="Path 732" d="M3538.507-801.1h-11.774l-1.639,19.541h-22.356L3517.344-896.5H3547.9L3562.5-781.556h-22.356Zm-1.788-21.552-4.025-51.007-4.172,51.007Z" transform="translate(-3441.192 897.938)" fill="#fff"/>
  <path id="Path_733" data-name="Path 733" d="M3804.807-818.431c0,24.57-14.755,35.633-53.655,35.633s-61.4-11.063-61.4-42.817H3712.1c0,15.518,9.539,22.7,39.049,22.7,23.549,0,31.3-4.31,31.3-14.08,0-14.081-18.184-14.512-43.52-18.248-22.655-3.3-46.2-8.046-46.2-33.334,0-19.541,12.669-32.041,52.016-32.041,42.327,0,58.573,11.064,58.573,37.07h-22.356c0-12.644-9.24-16.955-36.217-16.955-24,0-29.66,4.311-29.66,11.926,0,10.489,15.5,12.644,31.6,14.943C3777.979-849.179,3804.807-847.311,3804.807-818.431Z" transform="translate(-3562.938 900.617)" fill="#fff"/>
  <path id="Path_734" data-name="Path 734" d="M4070.929-801.1h-11.773l-1.64,19.541h-22.357L4049.766-896.5h30.553l14.607,114.945h-22.356Zm-1.787-21.552-4.025-51.007-4.173,51.007Z" transform="translate(-3787.79 897.938)" fill="#fff"/>
  <path id="Path_735" data-name="Path 735" d="M4278.209-814.121c0,20.259-7.9,31.323-27.424,31.323s-28.616-8.19-28.616-41.381h22.355c0,16.955,2.087,19.828,6.261,19.828s5.067-2.874,5.067-9.771c0-8.334-1.492-11.782-11.329-19.541-10.878-8.477-22.355-15.373-22.355-37.07,0-18.822,8.2-29.886,26.976-29.886s27.572,11.064,27.572,35.633H4254.36c0-11.207-1.788-14.081-5.216-14.081s-4.621,2.874-4.621,8.334c0,8.334,3.876,11.638,12.224,17.816C4269.266-843.719,4278.209-835.817,4278.209-814.121Z" transform="translate(-3909.53 900.617)" fill="#fff"/>
</svg>
