<svg id="Component_82_9" data-name="Component 82 – 9" xmlns="http://www.w3.org/2000/svg" width="368.999" height="91.512" viewBox="0 0 368.999 91.512">
  <path id="Path_768" data-name="Path 768" d="M3351.263,200.789V189.964c0-7.589-.685-9.821-4.335-9.821-3.765,0-4.335,2.232-4.335,9.821v38.39c0,7.589.57,9.821,4.335,9.821s4.335-2.232,4.335-9.821v-4.129h-4.335v-16.74h21.448V253.8h-6.845l-2.738-6.361c-3.536,4.352-8.327,7.477-14.489,7.477-12.321,0-18.823-7.477-18.823-25.445V188.848c0-17.968,7.643-25.445,21.448-25.445s21.448,7.477,21.448,25.445v11.941Z" transform="translate(-3325.48 -163.403)" fill="#fff"/>
  <path id="Path_769" data-name="Path 769" d="M3494.368,240.7h-9.012L3484.1,255.88h-17.112l11.18-89.28h23.387l11.18,89.28h-17.112ZM3493,223.963l-3.082-39.618-3.194,39.618Z" transform="translate(-3417.591 -165.484)" fill="#fff"/>
  <path id="Path_770" data-name="Path 770" d="M3696.45,255.88h-17.113c-1.14-1.339-1.255-4.576-1.255-7.924v-10.49c0-9.821-4.677-14.285-23.844-14.285H3630.51v32.7H3613.4V166.6h48.829c21.79,0,32.855,8.035,32.855,28.235,0,10.825-3.991,18.86-12.777,23.659,8.214,3.46,12.892,9.374,12.892,18.972v10.49C3695.2,251.3,3695.31,254.541,3696.45,255.88Zm-34.225-48.323c11.18,0,15.743-2.79,15.743-12.722,0-9.821-4.563-12.611-15.743-12.611H3630.51v25.333Z" transform="translate(-3512.91 -165.484)" fill="#fff"/>
  <path id="Path_771" data-name="Path 771" d="M3890.786,240.7h-9.012l-1.256,15.178h-17.112l11.179-89.28h23.388l11.179,89.28h-17.111Zm-1.369-16.74-3.08-39.618-3.195,39.618Z" transform="translate(-3675.66 -165.484)" fill="#fff"/>
  <path id="Path_772" data-name="Path 772" d="M4049.444,231.551c0,17.968-7.644,25.445-21.449,25.445s-21.447-7.477-21.447-25.445v-6.7h17.113v5.58c0,7.589.57,9.821,4.334,9.821s4.336-2.232,4.336-9.821V166.6h17.113Z" transform="translate(-3768.843 -165.484)" fill="#fff"/>
  <path id="Path_773" data-name="Path 773" d="M4165.168,183.34v19.53h15.4v16.74h-15.4v19.53h15.4v16.74h-32.514V166.6h32.514v16.74Z" transform="translate(-3860.968 -165.484)" fill="#fff"/>
  <path id="Path_774" data-name="Path 774" d="M4302.719,230.586c0,15.736-6.046,24.329-20.991,24.329s-21.9-6.362-21.9-32.141h17.114c0,13.169,1.6,15.4,4.791,15.4s3.879-2.232,3.879-7.589c0-6.473-1.142-9.151-8.67-15.177-8.33-6.584-17.114-11.941-17.114-28.793,0-14.62,6.276-23.213,20.649-23.213s21.106,8.593,21.106,27.677h-17.113c0-8.7-1.369-10.937-3.993-10.937s-3.535,2.232-3.535,6.473c0,6.473,2.965,9.04,9.353,13.838C4295.874,207.6,4302.719,213.734,4302.719,230.586Z" transform="translate(-3933.72 -163.403)" fill="#fff"/>
</svg>
