<svg id="Component_80_9" data-name="Component 80 – 9" xmlns="http://www.w3.org/2000/svg" width="368.999" height="70.538" viewBox="0 0 368.999 70.538">
  <path id="Path_748" data-name="Path 748" d="M3360.166-339.385v68.818h-13.2v-27.957h-8.276v27.957h-13.2v-68.818h13.2v27.957h8.276v-27.957Z" transform="translate(-3325.48 340.245)" fill="#fff"/>
  <path id="Path_749" data-name="Path 749" d="M3448.5-282.266h-6.956l-.968,11.7h-13.206L3436-339.385h18.047l8.628,68.818h-13.206Zm-1.057-12.9-2.376-30.538-2.466,30.538Z" transform="translate(-3391.802 340.245)" fill="#fff"/>
  <path id="Path_750" data-name="Path 750" d="M3564.3-291.987v3.527c0,12.817-5.019,17.807-20.073,17.893h-13.206v-68.818h13.206c15.054,0,19.192,4.9,19.192,18.753v.6c0,7.57-2.994,11.269-7.042,13.247C3560.868-304.632,3564.3-300.331,3564.3-291.987Zm-20.073-34.5v14.022c5.106,0,5.987-.86,5.987-5.849v-2.323C3550.216-325.622,3549.335-326.482,3544.229-326.482Zm6.866,37.162v-4.387c0-4.989-1.76-5.85-6.866-5.85v16.086C3549.335-283.471,3551.1-284.331,3551.1-289.32Z" transform="translate(-3459.284 340.245)" fill="#fff"/>
  <path id="Path_751" data-name="Path 751" d="M3644.6-339.385v68.818H3631.4v-68.818Z" transform="translate(-3524.625 340.245)" fill="#fff"/>
  <path id="Path_752" data-name="Path 752" d="M3705.614-326.482h-9.067v55.915h-13.206v-55.915h-9.067v-12.9h31.34Z" transform="translate(-3552.537 340.245)" fill="#fff"/>
  <path id="Path_753" data-name="Path 753" d="M3775.1-282.266h-6.955l-.969,11.7h-13.206l8.628-68.818h18.048l8.627,68.818h-13.206Zm-1.057-12.9-2.376-30.538-2.465,30.538Z" transform="translate(-3604.417 340.245)" fill="#fff"/>
  <path id="Path_754" data-name="Path 754" d="M3875-321.376c0-5.849-.44-7.57-3.345-7.57s-3.345,1.72-3.345,7.57v29.592c0,5.849.44,7.57,3.345,7.57s3.345-1.721,3.345-7.57v-8.345h13.207v9.2c0,13.85-5.9,19.613-16.552,19.613s-16.551-5.764-16.551-19.613v-31.312c0-13.849,5.9-19.613,16.551-19.613s16.552,5.763,16.552,19.613v9.2H3875Z" transform="translate(-3670.253 341.849)" fill="#fff"/>
  <path id="Path_755" data-name="Path 755" d="M3968.181-339.385v68.818h-13.2v-68.818Z" transform="translate(-3735.267 340.245)" fill="#fff"/>
  <path id="Path_756" data-name="Path 756" d="M4030.95-322.236v31.312c0,13.85-5.9,19.613-16.551,19.613s-16.551-5.764-16.551-19.613v-31.312c0-13.849,5.9-19.613,16.551-19.613S4030.95-336.086,4030.95-322.236Zm-13.2.86c0-5.849-.441-7.57-3.346-7.57s-3.346,1.72-3.346,7.57v29.592c0,5.849.441,7.57,3.346,7.57s3.346-1.721,3.346-7.57Z" transform="translate(-3763.178 341.849)" fill="#fff"/>
  <path id="Path_757" data-name="Path 757" d="M4135.488-339.385v68.818h-13.207l-11.356-33.979v33.979H4097.72v-68.818h13.206l11.356,33.979v-33.979Z" transform="translate(-3828.193 340.245)" fill="#fff"/>
  <path id="Path_758" data-name="Path 758" d="M4224.164-326.482v15.054h11.883v12.9h-11.883v15.054h11.883v12.9h-25.088v-68.818h25.088v12.9Z" transform="translate(-3901.912 340.245)" fill="#fff"/>
  <path id="Path_759" data-name="Path 759" d="M4320.978-290.064c0,12.129-4.665,18.753-16.2,18.753s-16.9-4.9-16.9-24.775h13.207c0,10.151,1.232,11.871,3.7,11.871s2.994-1.721,2.994-5.849c0-4.989-.882-7.054-6.691-11.7-6.427-5.076-13.207-9.2-13.207-22.194,0-11.269,4.843-17.893,15.936-17.893s16.286,6.623,16.286,21.333h-13.206c0-6.71-1.056-8.43-3.08-8.43s-2.729,1.72-2.729,4.989c0,4.989,2.288,6.968,7.217,10.667C4315.7-307.784,4320.978-303.053,4320.978-290.064Z" transform="translate(-3951.979 341.849)" fill="#fff"/>
</svg>
