<?xml version="1.0" encoding="utf-8"?>
<!-- Generator: Adobe Illustrator 23.0.1, SVG Export Plug-In . SVG Version: 6.00 Build 0)  -->
<svg version="1.1" id="Layer_1" xmlns="http://www.w3.org/2000/svg" xmlns:xlink="http://www.w3.org/1999/xlink" x="0px" y="0px"
	 viewBox="0 0 369 190" style="enable-background:new 0 0 369 190;" xml:space="preserve">
<style type="text/css">
	.st0{fill:#FFFFFF;}
</style>
<g id="Component_83_9" transform="translate(0 0)">
	<path id="Path_775" class="st0" d="M31.8,73.7v16.7H0V1.1h16.7v72.5H31.8z"/>
	<path id="Path_776" class="st0" d="M74.9,25.4v40.6c0,18-7.5,25.4-21,25.4s-21-7.5-21-25.4V25.4c0-18,7.5-25.4,21-25.4
		S74.9,7.5,74.9,25.4z M58.1,26.6c0-7.6-0.6-9.8-4.2-9.8s-4.2,2.2-4.2,9.8V65c0,7.6,0.6,9.8,4.2,9.8s4.2-2.2,4.2-9.8V26.6z"/>
	<path id="Path_777" class="st0" d="M102.3,26.6c0-7.6-0.6-9.8-4.2-9.8s-4.2,2.2-4.2,9.8V65c0,7.6,0.6,9.8,4.2,9.8s4.2-2.2,4.2-9.8
		V54.1h16.7v11.9c0,18-7.5,25.4-21,25.4s-21-7.5-21-25.4V25.4c0-18,7.5-25.4,21-25.4s21,7.5,21,25.4v11.9h-16.7V26.6z"/>
	<path id="Path_778" class="st0" d="M145.8,75.2H137l-1.2,15.2h-16.7L130,1.1h22.9l10.9,89.3h-16.7L145.8,75.2z M144.5,58.5l-3-39.6
		l-3.1,39.6H144.5z"/>
	<path id="Path_779" class="st0" d="M196.7,73.7v16.7h-31.8V1.1h16.7v72.5H196.7z"/>
	<path id="Path_780" class="st0" d="M215.7,17.9v19.5h15.1v16.7h-15.1v19.5h15.1v16.7h-31.8V1.1h31.8v16.7L215.7,17.9z"/>
	<path id="Path_781" class="st0" d="M274.9,67.2c0,15.7-5.9,24.3-20.5,24.3S233,85.2,233,59.4h16.7c0,13.2,1.6,15.4,4.7,15.4
		s3.8-2.2,3.8-7.6c0-6.5-1.1-9.2-8.5-15.2c-8.1-6.6-16.7-11.9-16.7-28.8C233,8.6,239.1,0,253.2,0s20.6,8.6,20.6,27.7h-16.7
		c0-8.7-1.3-10.9-3.9-10.9s-3.5,2.2-3.5,6.5c0,6.5,2.9,9,9.2,13.8C268.2,44.2,274.9,50.3,274.9,67.2z"/>
	<path id="Path_782" class="st0" d="M335,25.4v40.6c0,17.7-6.4,24.3-25.4,24.3h-16.7V1.1h16.7C328.6,1.1,335,7.5,335,25.4z
		 M318.2,66.1V25.4c0-6.5-2.2-7.6-8.7-7.6v55.8C316,73.7,318.2,72.5,318.2,66.1z"/>
	<path id="Path_783" class="st0" d="M353.9,17.9v19.5H369v16.7h-15.1v19.5H369v16.7h-31.8V1.1H369v16.7L353.9,17.9z"/>
</g>
<g id="Component_84_9" transform="translate(0 0)">
	<path id="Path_784" class="st0" d="M48.3,99.6v89.3H31.4l-14.5-44.1v44.1H0V99.6h16.9l14.5,44.1V99.6H48.3z"/>
	<path id="Path_785" class="st0" d="M67.4,116.3v19.5h15.2v16.7H67.4v19.5h15.2v16.7H50.5V99.6h32.1v16.7H67.4z"/>
	<path id="Path_786" class="st0" d="M110.3,135.9V125c0-7.6-0.7-9.8-4.3-9.8c-3.7,0-4.3,2.2-4.3,9.8v38.4c0,7.6,0.6,9.8,4.3,9.8
		s4.3-2.2,4.3-9.8v-4.1H106v-16.7h21.2v46.3h-6.8l-2.7-6.4c-3.5,4.4-8.2,7.5-14.3,7.5c-12.2,0-18.6-7.5-18.6-25.4v-40.6
		c0-18,7.5-25.4,21.2-25.4s21.2,7.5,21.2,25.4v11.9H110.3z"/>
	<path id="Path_787" class="st0" d="M171.7,123.9v40.6c0,18-7.5,25.4-21.2,25.4s-21.2-7.5-21.2-25.4v-40.6c0-18,7.5-25.4,21.2-25.4
		S171.7,106,171.7,123.9z M154.8,125c0-7.6-0.6-9.8-4.3-9.8s-4.3,2.2-4.3,9.8v38.4c0,7.6,0.6,9.8,4.3,9.8s4.3-2.2,4.3-9.8V125z"/>
	<path id="Path_788" class="st0" d="M199.3,125c0-7.6-0.6-9.8-4.3-9.8s-4.3,2.2-4.3,9.8v38.4c0,7.6,0.6,9.8,4.3,9.8s4.3-2.2,4.3-9.8
		v-10.8h16.9v11.9c0,18-7.5,25.4-21.2,25.4s-21.2-7.5-21.2-25.4v-40.6c0-18,7.5-25.4,21.2-25.4s21.2,7.5,21.2,25.4v11.9h-16.9
		L199.3,125z"/>
	<path id="Path_789" class="st0" d="M235.3,99.6v89.3h-16.9V99.6H235.3z"/>
	<path id="Path_790" class="st0" d="M279.9,123.9v40.6c0,18-7.5,25.4-21.2,25.4s-21.2-7.5-21.2-25.4v-40.6c0-18,7.5-25.4,21.2-25.4
		S279.9,106,279.9,123.9z M263,125c0-7.6-0.6-9.8-4.3-9.8s-4.3,2.2-4.3,9.8v38.4c0,7.6,0.6,9.8,4.3,9.8s4.3-2.2,4.3-9.8V125z"/>
	<path id="Path_791" class="st0" d="M369,162.3c0,19.1-11.1,27.7-40.5,27.7s-46.4-8.6-46.4-33.3H299c0,12.1,7.2,17.6,29.5,17.6
		c17.8,0,23.6-3.3,23.6-10.9c0-10.9-13.7-11.3-32.9-14.2c-17.1-2.6-34.9-6.3-34.9-25.9c0-15.2,9.6-24.9,39.3-24.9
		c32,0,44.2,8.6,44.2,28.8H351c0-9.8-7-13.2-27.3-13.2c-18.1,0-22.4,3.3-22.4,9.3c0,8.1,11.7,9.8,23.9,11.6
		C348.7,138.4,369,139.9,369,162.3z"/>
</g>
</svg>
