<svg id="Component_81_9" data-name="Component 81 – 9" xmlns="http://www.w3.org/2000/svg" width="369" height="91.512" viewBox="0 0 369 91.512">
  <path id="Path_760" data-name="Path 760" d="M3325.48-73.621c0-24.664,16.948-45.645,47.062-45.645,29.888,0,46.835,20.981,46.835,45.645,0,24.887-16.947,45.867-46.835,45.867C3342.428-27.754,3325.48-48.735,3325.48-73.621Zm76.721,0c0-15.4-9.276-30.021-29.659-30.021-20.61,0-29.886,14.62-29.886,30.021,0,15.624,9.276,30.244,29.886,30.244C3392.925-43.378,3402.2-58,3402.2-73.621Z" transform="translate(-3325.48 119.266)" fill="#fff"/>
  <path id="Path_761" data-name="Path 761" d="M3624.1-99.329v23.994h15.458v16.74H3624.1v31.806h-17.177v-89.28h32.635v16.74Z" transform="translate(-3508.694 117.185)" fill="#fff"/>
  <path id="Path_762" data-name="Path 762" d="M3730.051-116.069v89.28h-17.175v-89.28Z" transform="translate(-3577.666 117.185)" fill="#fff"/>
  <path id="Path_763" data-name="Path 763" d="M3800.423-92.7c0-7.589-.573-9.821-4.351-9.821s-4.351,2.232-4.351,9.821v38.39c0,7.589.572,9.821,4.351,9.821s4.351-2.232,4.351-9.821V-65.14H3817.6V-53.2c0,17.968-7.672,25.445-21.527,25.445s-21.527-7.477-21.527-25.445V-93.821c0-17.968,7.671-25.445,21.527-25.445s21.527,7.477,21.527,25.445V-81.88h-17.176Z" transform="translate(-3617.813 119.266)" fill="#fff"/>
  <path id="Path_764" data-name="Path 764" d="M3927.522-116.069v89.28h-17.176v-89.28Z" transform="translate(-3706.215 117.185)" fill="#fff"/>
  <path id="Path_765" data-name="Path 765" d="M4021.138-116.069v89.28h-17.176L3989.19-70.871v44.082h-17.176v-89.28h17.176l14.773,44.082v-44.082Z" transform="translate(-3746.362 117.185)" fill="#fff"/>
  <path id="Path_766" data-name="Path 766" d="M4149.4-41.966h-9.047L4139.1-26.789h-17.177l11.222-89.28h23.475l11.223,89.28h-17.177Zm-1.375-16.74-3.092-39.618-3.206,39.618Z" transform="translate(-3843.956 117.185)" fill="#fff"/>
  <path id="Path_767" data-name="Path 767" d="M4302.42-52.083c0,15.736-6.069,24.329-21.069,24.329s-21.986-6.361-21.986-32.141h17.176c0,13.169,1.6,15.4,4.81,15.4s3.892-2.232,3.892-7.589c0-6.473-1.143-9.151-8.7-15.177-8.358-6.585-17.176-11.941-17.176-28.793,0-14.62,6.3-23.213,20.726-23.213s21.184,8.593,21.184,27.677H4284.1c0-8.7-1.376-10.937-4.009-10.937s-3.55,2.232-3.55,6.473c0,6.473,2.977,9.04,9.391,13.839C4295.549-75.072,4302.42-68.934,4302.42-52.083Z" transform="translate(-3933.421 119.266)" fill="#fff"/>
</svg>
