<?xml version="1.0" standalone="no"?>
<!DOCTYPE svg PUBLIC "-//W3C//DTD SVG 20010904//EN"
 "http://www.w3.org/TR/2001/REC-SVG-20010904/DTD/svg10.dtd">
<svg version="1.0" xmlns="http://www.w3.org/2000/svg"
 width="700.000000pt" height="700.000000pt" viewBox="0 0 700.000000 700.000000"
 preserveAspectRatio="xMidYMid meet">
<metadata>
Created by potrace 1.14, written by Peter Selinger 2001-2017
</metadata>
<g transform="translate(0.000000,700.000000) scale(0.100000,-0.100000)"
fill="#000000" stroke="none">
<path d="M892 3498 l3 -1723 323 -3 322 -2 0 636 0 637 78 -7 c109 -9 151 -23
193 -65 62 -62 62 -61 66 -653 l4 -538 320 0 320 0 -3 513 c-4 555 -4 556 -63
685 -31 67 -120 161 -188 197 -28 15 -53 29 -54 30 -1 0 33 37 76 81 93 95
156 213 198 369 25 97 27 112 31 434 5 456 -13 596 -100 770 -102 203 -297
315 -611 350 -53 6 -281 11 -507 11 l-410 0 2 -1722z m844 1056 c60 -16 106
-62 124 -121 16 -52 25 -440 12 -531 -22 -157 -76 -202 -259 -215 l-73 -6 0
451 0 450 73 -7 c39 -3 95 -13 123 -21z"/>
<path d="M3020 3500 l0 -1720 320 0 320 0 0 631 0 631 588 -5 c363 -3 618 -9
667 -16 310 -44 458 -139 521 -331 16 -49 18 -104 22 -482 l3 -428 326 0 325
0 -5 423 c-4 388 -6 429 -26 506 -53 209 -194 380 -393 477 -32 16 -58 31 -58
34 0 3 31 25 68 50 165 111 284 272 346 468 46 147 59 256 53 457 -9 291 -59
467 -182 640 -107 151 -281 264 -498 324 -205 57 -164 55 -1324 58 l-1073 4 0
-1721z m2134 1092 c95 -26 150 -57 199 -111 73 -81 98 -172 98 -354 -1 -284
-87 -407 -328 -464 -59 -14 -165 -17 -765 -20 l-698 -4 0 491 0 491 708 -3
c694 -4 708 -4 786 -26z"/>
</g>
</svg>
